# xmcd
#
# Track frame offsets: 
#        150
#        15528
#        31704
#        46639
#        63369
#        78695
#        91536
#        104948
#        117844
#        133471
#        145790
#        160734
#        175139
#        190038
#        202122
#        221199
#        239097
#        259759
#
# Disc length: 3824 seconds
#
# Revision: 0
# Processed by: cddbd v1.5.2PL0 Copyright (c) Steve Scherf et al.
# Submitted via: ExactAudioCopy v0.99pb3
#
DISCID=010eee12
DTITLE=Alain Chamfort - Bonus Vol.1 - 1958-1977
DYEAR=2007
DGENRE=Chanson
TTITLE0=Ariette De Haydn
TTITLE1=Variation De Beethoven
TTITLE2=Même Si
TTITLE3=Les Grands
TTITLE4=Le Chemin Du Château
TTITLE5=Tu Dors Sous La Pluie
TTITLE6=Eine Rose So Wundershön Wie Du
TTITLE7=Liebe Auf Den Ersten Blick (Celeste)
TTITLE8=Le Train De Moscou
TTITLE9=L'amour En France (Claude François)
TTITLE10=Harmonie Sur La Ville (1ère Version)
TTITLE11=El Amor No Es Una Cancion
TTITLE12=Armonia En El Corazon
TTITLE13=Bonjour Omemesan
TTITLE14=Joujou À La Casse (Remix)
TTITLE15=Baby Lou (Remix)
TTITLE16=Lucette Et Lucie (Remix)
TTITLE17=Le Vide Au Coeur (Remix)
EXTD=
EXTT0=
EXTT1=
EXTT2=
EXTT3=
EXTT4=
EXTT5=
EXTT6=
EXTT7=
EXTT8=
EXTT9=
EXTT10=
EXTT11=
EXTT12=
EXTT13=
EXTT14=
EXTT15=
EXTT16=
EXTT17=
PLAYORDER=
